<?xml version="1.0" standalone="no"?>
<!DOCTYPE svg PUBLIC "-//W3C//DTD SVG 20010904//EN"
 "http://www.w3.org/TR/2001/REC-SVG-20010904/DTD/svg10.dtd">
<svg version="1.0" xmlns="http://www.w3.org/2000/svg"
 width="1600.000000pt" height="894.000000pt" viewBox="0 0 1600.000000 894.000000"
 preserveAspectRatio="xMidYMid meet">

<g transform="translate(0.000000,894.000000) scale(0.100000,-0.100000)"
fill="#000000" stroke="none">
<path d="M6405 5713 c-254 -30 -445 -120 -597 -282 -153 -163 -229 -353 -247
-616 -33 -497 145 -853 511 -1024 302 -142 763 -129 1038 27 167 96 308 257
378 432 82 206 101 483 51 735 -81 403 -366 664 -794 725 -66 9 -274 11 -340
3z m251 -364 c263 -48 409 -309 390 -694 -14 -286 -110 -476 -283 -558 -66
-31 -72 -32 -198 -32 -170 0 -221 19 -315 114 -72 73 -118 155 -145 260 -36
142 -36 389 0 531 72 281 285 428 551 379z"/>
<path d="M8720 5710 c-171 -24 -362 -92 -477 -171 -69 -47 -178 -154 -229
-225 -124 -173 -183 -401 -171 -664 16 -373 167 -642 453 -811 331 -196 866
-196 1329 -3 l85 36 0 474 0 474 -390 0 -390 0 0 -170 0 -170 150 0 150 0 0
-194 0 -194 -69 -16 c-92 -21 -296 -21 -376 -1 -161 42 -279 133 -345 269 -62
126 -75 187 -75 361 0 171 13 235 71 354 47 95 134 184 225 228 102 50 185 67
334 67 193 0 347 -37 544 -130 51 -24 95 -44 97 -44 2 0 4 89 4 199 l0 198
-92 35 c-100 38 -180 60 -311 84 -97 19 -422 27 -517 14z"/>
<path d="M10900 5714 c-14 -2 -56 -9 -95 -15 -350 -57 -628 -309 -715 -648
-53 -204 -54 -479 -5 -674 67 -265 238 -475 476 -586 204 -95 493 -124 750
-75 386 73 647 336 726 730 26 132 24 406 -4 534 -66 302 -228 517 -480 637
-148 70 -256 93 -458 98 -93 2 -181 2 -195 -1z m245 -365 c189 -35 319 -176
372 -404 27 -119 24 -389 -5 -498 -48 -175 -133 -290 -259 -350 -60 -28 -80
-32 -174 -35 -79 -3 -122 0 -165 13 -155 44 -259 163 -316 362 -20 69 -23 101
-23 268 0 155 3 203 19 260 77 287 287 433 551 384z"/>
<path d="M4050 4710 l0 -980 695 0 695 0 0 190 0 190 -445 0 -445 0 0 790 0
790 -250 0 -250 0 0 -980z"/>
</g>
</svg>
